<svg width="89" height="91" viewBox="0 0 89 91" fill="none" xmlns="http://www.w3.org/2000/svg">
<path d="M25.5653 4.71179C32.2917 3.08442 39.4397 1.62256 43.7173 1.62256C47.995 1.62256 55.1429 3.08442 61.8694 4.71179C68.7508 6.36673 75.688 8.32508 79.7672 9.51112C81.4727 10.0123 82.9848 10.9314 84.1297 12.1629C85.2746 13.3944 86.0058 14.8882 86.2395 16.4729C89.9343 41.1702 81.3605 59.4739 70.9578 71.5825C66.5465 76.7624 61.2866 81.3238 55.3537 85.1144C53.3023 86.4261 51.1287 87.5796 48.8567 88.5622C47.1208 89.2904 45.2548 89.8862 43.7173 89.8862C42.1799 89.8862 40.32 89.2904 38.578 88.5622C36.306 87.5796 34.1324 86.4262 32.0809 85.1144C26.1482 81.3237 20.8883 76.7623 16.4769 71.5825C6.07418 59.4739 -2.49968 41.1702 1.1952 16.4729C1.42884 14.8882 2.16011 13.3944 3.30499 12.1629C4.44986 10.9314 5.96192 10.0123 7.66744 9.51112C13.5891 7.78341 19.5568 6.18317 25.5653 4.71179Z" fill="#CB302E"/>
<path d="M26.1645 63.3445H34.8835C35.728 63.345 36.5525 63.0877 37.2469 62.6071C37.9412 62.1265 38.4724 61.4454 38.7694 60.6548L39.8342 57.813H48.4495L49.5143 60.6548C49.8113 61.4454 50.3424 62.1265 51.0368 62.6071C51.7312 63.0877 52.5557 63.345 53.4002 63.3445H62.1192C63.2195 63.3445 64.2747 62.9074 65.0527 62.1294C65.8307 61.3514 66.2678 60.2962 66.2678 59.1959V57.0455C66.2675 53.4486 65.9761 49.8575 65.3966 46.3075C65.2919 45.6613 64.9613 45.0732 64.4638 44.6478C63.9662 44.2224 63.3339 43.9873 62.6793 43.9843C62.2788 43.9876 61.8839 44.0779 61.5217 44.2489C61.1596 44.4198 60.8389 44.6674 60.5818 44.9744C60.3247 45.2815 60.1374 45.6407 60.0327 46.0273C59.9281 46.4138 59.9086 46.8185 59.9757 47.2133C60.4936 50.4649 60.7479 53.753 60.7363 57.0455V57.813H54.3544L53.1305 54.5218C52.8826 53.8625 52.4392 53.2946 51.8596 52.8943C51.2801 52.4939 50.5921 52.2801 49.8877 52.2815H38.396C37.6916 52.2801 37.0036 52.4939 36.4241 52.8943C35.8445 53.2946 35.4011 53.8625 35.1532 54.5218L33.9293 57.813H27.5474V56.3541C27.547 46.817 29.77 37.4111 34.04 28.8833C34.273 28.4334 34.6252 28.0562 35.0581 27.7928C35.491 27.5294 35.9879 27.39 36.4946 27.3898H38.5274C39.2256 27.3952 39.9015 27.1439 40.4266 26.6838C40.9518 26.2236 41.2897 25.5866 41.3761 24.8937C41.4138 24.5085 41.3703 24.1197 41.2483 23.7523C41.1263 23.385 40.9286 23.0474 40.6679 22.7613C40.4072 22.4752 40.0894 22.247 39.735 22.0914C39.3805 21.9359 38.9974 21.8565 38.6103 21.8583H36.4946C34.9543 21.8585 33.4444 22.2874 32.1341 23.0971C30.8238 23.9067 29.7647 25.0651 29.0754 26.4425C24.4321 35.7298 22.0151 45.9707 22.0159 56.3541V59.1959C22.0159 60.2962 22.453 61.3514 23.231 62.1294C24.009 62.9074 25.0642 63.3445 26.1645 63.3445Z" fill="#F2F2F2"/>
<path d="M54.5514 47.4371C56.0789 47.4371 57.3171 46.1989 57.3171 44.6714C57.3171 43.1439 56.0789 41.9056 54.5514 41.9056C53.0239 41.9056 51.7856 43.1439 51.7856 44.6714C51.7856 46.1989 53.0239 47.4371 54.5514 47.4371Z" fill="#F2F2F2"/>
<path d="M35.1122 47.4371C36.6397 47.4371 37.8779 46.1989 37.8779 44.6714C37.8779 43.1439 36.6397 41.9056 35.1122 41.9056C33.5847 41.9056 32.3464 43.1439 32.3464 44.6714C32.3464 46.1989 33.5847 47.4371 35.1122 47.4371Z" fill="#F2F2F2"/>
<path d="M58.9035 15.292C58.9035 14.9318 59.1955 14.6398 59.5557 14.6398H64.7607C65.1209 14.6398 65.4129 14.9318 65.4129 15.292V33.5159C65.4129 33.8761 65.1209 34.1681 64.7607 34.1681H59.5557C59.1955 34.1681 58.9035 33.8761 58.9035 33.5159V15.292Z" fill="#F2F2F2"/>
<path d="M53.0463 27.6587C52.6861 27.6587 52.394 27.3666 52.394 27.0064L52.394 21.8014C52.394 21.4412 52.6861 21.1492 53.0463 21.1492L71.2701 21.1492C71.6304 21.1492 71.9224 21.4412 71.9224 21.8014V27.0064C71.9224 27.3666 71.6304 27.6587 71.2701 27.6587L53.0463 27.6587Z" fill="#F2F2F2"/>
</svg>
