<svg width="89" height="91" viewBox="0 0 89 91" fill="none" xmlns="http://www.w3.org/2000/svg">
<path d="M25.5653 4.71179C32.2917 3.08442 39.4397 1.62256 43.7173 1.62256C47.995 1.62256 55.1429 3.08442 61.8694 4.71179C68.7508 6.36673 75.688 8.32508 79.7672 9.51112C81.4727 10.0123 82.9848 10.9314 84.1297 12.1629C85.2746 13.3944 86.0058 14.8882 86.2395 16.4729C89.9343 41.1702 81.3605 59.4739 70.9578 71.5825C66.5465 76.7624 61.2866 81.3238 55.3537 85.1144C53.3023 86.4261 51.1287 87.5796 48.8567 88.5622C47.1208 89.2904 45.2548 89.8862 43.7173 89.8862C42.1799 89.8862 40.32 89.2904 38.578 88.5622C36.306 87.5796 34.1324 86.4262 32.0809 85.1144C26.1482 81.3237 20.8883 76.7623 16.4769 71.5825C6.07418 59.4739 -2.49968 41.1702 1.1952 16.4729C1.42884 14.8882 2.16011 13.3944 3.30499 12.1629C4.44986 10.9314 5.96192 10.0123 7.66744 9.51112C13.5891 7.78341 19.5568 6.18317 25.5653 4.71179Z" fill="#122566"/>
<path d="M26.1645 63.3444H34.8835C35.728 63.3449 36.5525 63.0876 37.2469 62.607C37.9412 62.1263 38.4724 61.4453 38.7694 60.6547L39.8342 57.8129H48.4495L49.5143 60.6547C49.8113 61.4453 50.3424 62.1263 51.0368 62.607C51.7312 63.0876 52.5557 63.3449 53.4002 63.3444H62.1192C63.2195 63.3444 64.2747 62.9073 65.0527 62.1293C65.8307 61.3513 66.2678 60.2961 66.2678 59.1958V57.0454C66.2675 53.4484 65.9761 49.8574 65.3966 46.3074C65.2919 45.6612 64.9613 45.0731 64.4638 44.6477C63.9662 44.2223 63.3339 43.9872 62.6793 43.9842C62.2788 43.9875 61.8839 44.0778 61.5217 44.2488C61.1596 44.4197 60.8389 44.6673 60.5818 44.9743C60.3247 45.2814 60.1374 45.6406 60.0327 46.0271C59.9281 46.4137 59.9086 46.8184 59.9757 47.2132C60.4936 50.4648 60.7479 53.7529 60.7363 57.0454V57.8129H54.3544L53.1305 54.5217C52.8826 53.8624 52.4392 53.2945 51.8596 52.8942C51.2801 52.4938 50.5921 52.28 49.8877 52.2814H38.396C37.6916 52.28 37.0036 52.4938 36.4241 52.8942C35.8445 53.2945 35.4011 53.8624 35.1532 54.5217L33.9293 57.8129H27.5474V56.354C27.547 46.8169 29.77 37.411 34.04 28.8832C34.273 28.4333 34.6252 28.0561 35.0581 27.7927C35.491 27.5293 35.9879 27.3899 36.4946 27.3897H38.5274C39.2256 27.395 39.9015 27.1438 40.4266 26.6836C40.9518 26.2235 41.2897 25.5865 41.3761 24.8936C41.4138 24.5084 41.3703 24.1195 41.2483 23.7522C41.1263 23.3849 40.9286 23.0472 40.6679 22.7611C40.4072 22.475 40.0894 22.2468 39.735 22.0913C39.3805 21.9358 38.9974 21.8563 38.6103 21.8582H36.4946C34.9543 21.8584 33.4444 22.2873 32.1341 23.0969C30.8238 23.9066 29.7647 25.065 29.0754 26.4424C24.4321 35.7297 22.0151 45.9706 22.0159 56.354V59.1958C22.0159 60.2961 22.453 61.3513 23.231 62.1293C24.009 62.9073 25.0642 63.3444 26.1645 63.3444Z" fill="#F2F2F2"/>
<path d="M54.5514 47.437C56.0789 47.437 57.3171 46.1987 57.3171 44.6713C57.3171 43.1438 56.0789 41.9055 54.5514 41.9055C53.0239 41.9055 51.7856 43.1438 51.7856 44.6713C51.7856 46.1987 53.0239 47.437 54.5514 47.437Z" fill="#F2F2F2"/>
<path d="M35.1122 47.437C36.6397 47.437 37.8779 46.1987 37.8779 44.6713C37.8779 43.1438 36.6397 41.9055 35.1122 41.9055C33.5847 41.9055 32.3464 43.1438 32.3464 44.6713C32.3464 46.1987 33.5847 47.437 35.1122 47.437Z" fill="#F2F2F2"/>
<path d="M58.9035 15.2919C58.9035 14.9317 59.1955 14.6396 59.5557 14.6396H64.7607C65.1209 14.6396 65.4129 14.9317 65.4129 15.2919V33.5157C65.4129 33.876 65.1209 34.168 64.7607 34.168H59.5557C59.1955 34.168 58.9035 33.876 58.9035 33.5157V15.2919Z" fill="#F2F2F2"/>
<path d="M53.0463 27.6585C52.6861 27.6585 52.394 27.3665 52.394 27.0063L52.394 21.8013C52.394 21.4411 52.6861 21.1491 53.0463 21.1491L71.2701 21.1491C71.6304 21.1491 71.9224 21.4411 71.9224 21.8013V27.0063C71.9224 27.3665 71.6304 27.6585 71.2701 27.6585L53.0463 27.6585Z" fill="#F2F2F2"/>
</svg>
