<svg width="150" height="34" viewBox="0 0 150 34" fill="none" xmlns="http://www.w3.org/2000/svg">
<path fill-rule="evenodd" clip-rule="evenodd" d="M9.473 1.43506C11.997 0.824422 14.6792 0.275879 16.2843 0.275879C17.8894 0.275879 20.5716 0.824422 23.0955 1.43506C25.6777 2.05606 28.2808 2.7909 29.8114 3.23594C30.4514 3.424 31.0188 3.76889 31.4484 4.23098C31.878 4.69307 32.1524 5.25362 32.24 5.84825C33.6265 15.1155 30.4093 21.9837 26.5058 26.5273C24.8506 28.4709 22.8769 30.1825 20.6506 31.6049C19.8809 32.0971 19.0653 32.5299 18.2127 32.8987C17.5614 33.1719 16.8612 33.3954 16.2843 33.3954C15.7074 33.3954 15.0095 33.1719 14.3558 32.8987C13.5033 32.5299 12.6877 32.0971 11.9179 31.6049C9.69174 30.1825 7.71804 28.4709 6.06272 26.5273C2.15926 21.9837 -1.05794 15.1155 0.328503 5.84825C0.416173 5.25362 0.690568 4.69307 1.12017 4.23098C1.54976 3.76889 2.11714 3.424 2.75711 3.23594C4.97913 2.58764 7.21841 1.98718 9.473 1.43506ZM9.69917 23.4363H12.9708C13.2877 23.4365 13.5971 23.34 13.8577 23.1596C14.1182 22.9793 14.3175 22.7237 14.429 22.4271L14.8285 21.3607H18.0613L18.4608 22.4271C18.5723 22.7237 18.7716 22.9793 19.0321 23.1596C19.2927 23.34 19.6021 23.4365 19.9189 23.4363H23.1906C23.6035 23.4363 23.9994 23.2723 24.2914 22.9804C24.5833 22.6884 24.7473 22.2925 24.7473 21.8796V21.0727C24.7472 19.723 24.6379 18.3755 24.4204 17.0434C24.3811 16.801 24.2571 16.5803 24.0704 16.4207C23.8837 16.2611 23.6464 16.1728 23.4008 16.1717C23.2505 16.1729 23.1023 16.2068 22.9664 16.271C22.8305 16.3351 22.7102 16.428 22.6137 16.5432C22.5173 16.6584 22.447 16.7932 22.4077 16.9383C22.3684 17.0833 22.3611 17.2352 22.3863 17.3833C22.5806 18.6034 22.6761 19.8372 22.6717 21.0727V21.3607H20.277L19.8178 20.1257C19.7247 19.8783 19.5583 19.6653 19.3409 19.515C19.1234 19.3648 18.8652 19.2846 18.6009 19.2851H14.2889C14.0245 19.2846 13.7664 19.3648 13.5489 19.515C13.3315 19.6653 13.1651 19.8783 13.072 20.1257L12.6128 21.3607H10.2181V20.8133C10.2179 17.2346 11.0521 13.7052 12.6543 10.5053C12.7418 10.3365 12.8739 10.1949 13.0364 10.0961C13.1988 9.99726 13.3852 9.94495 13.5754 9.94487H14.3382C14.6001 9.94688 14.8538 9.8526 15.0508 9.67994C15.2479 9.50727 15.3747 9.26824 15.4071 9.00825C15.4213 8.8637 15.4049 8.7178 15.3591 8.57996C15.3134 8.44213 15.2392 8.31544 15.1414 8.20808C15.0435 8.10072 14.9243 8.0151 14.7913 7.95673C14.6583 7.89837 14.5145 7.86857 14.3693 7.86926H13.5754C12.9974 7.86933 12.4309 8.03027 11.9392 8.33408C11.4475 8.63788 11.0501 9.07255 10.7915 9.58942C9.04911 13.0743 8.14216 16.9171 8.14246 20.8133V21.8796C8.14246 22.2925 8.30647 22.6884 8.59841 22.9804C8.89035 23.2723 9.28631 23.4363 9.69917 23.4363ZM21.3898 16.4298C21.3898 17.0029 20.9251 17.4676 20.352 17.4676C19.7788 17.4676 19.3142 17.0029 19.3142 16.4298C19.3142 15.8566 19.7788 15.3919 20.352 15.3919C20.9251 15.3919 21.3898 15.8566 21.3898 16.4298ZM13.0569 17.4676C13.6301 17.4676 14.0947 17.0029 14.0947 16.4298C14.0947 15.8566 13.6301 15.3919 13.0569 15.3919C12.4838 15.3919 12.0191 15.8566 12.0191 16.4298C12.0191 17.0029 12.4838 17.4676 13.0569 17.4676ZM22.2282 5.16048C22.093 5.16048 21.9834 5.27005 21.9834 5.40522V7.60305H19.7856C19.6504 7.60305 19.5409 7.71262 19.5409 7.84779V9.80087C19.5409 9.93604 19.6504 10.0456 19.7856 10.0456H21.9834V12.2434C21.9834 12.3786 22.093 12.4882 22.2282 12.4882H24.1812C24.3164 12.4882 24.426 12.3786 24.426 12.2434V10.0456H26.6238C26.759 10.0456 26.8686 9.93604 26.8686 9.80087V7.84779C26.8686 7.71262 26.759 7.60305 26.6238 7.60305H24.426V5.40522C24.426 5.27005 24.3164 5.16048 24.1812 5.16048H22.2282Z" fill="#CB302E"/>
<path d="M38.2996 28.3115C38.3561 28.3115 38.4019 28.2657 38.4019 28.2092V26.6816C38.4019 26.6251 38.4477 26.5793 38.5041 26.5793H39.0245C39.0601 26.5793 39.0932 26.5978 39.1118 26.6282L40.1113 28.2626C40.1299 28.293 40.1629 28.3115 40.1985 28.3115H40.9962C41.0762 28.3115 41.1252 28.2238 41.0833 28.1557L40.1628 26.6576C40.125 26.596 40.1613 26.5155 40.2309 26.4962C40.7742 26.3458 41.1791 25.9057 41.1791 25.248C41.1791 24.3819 40.5492 23.8809 39.6688 23.8809H37.6023C37.5458 23.8809 37.5 23.9266 37.5 23.9831V28.2092C37.5 28.2657 37.5458 28.3115 37.6023 28.3115H38.2996ZM38.4019 24.749C38.4019 24.6925 38.4477 24.6467 38.5041 24.6467H39.6688C40.0195 24.6467 40.27 24.9331 40.27 25.248C40.27 25.5772 40.0052 25.8492 39.6688 25.8492H38.5041C38.4477 25.8492 38.4019 25.8035 38.4019 25.747V24.749Z" fill="#CB302E"/>
<path d="M41.792 26.701C41.792 27.6387 42.4648 28.3544 43.381 28.3544C43.6965 28.3544 43.988 28.2386 44.2167 28.0457C44.2917 27.9825 44.426 28.0316 44.426 28.1297V28.2092C44.426 28.2657 44.4718 28.3115 44.5283 28.3115H45.1612C45.2177 28.3115 45.2635 28.2657 45.2635 28.2092V25.1928C45.2635 25.1363 45.2177 25.0905 45.1612 25.0905H44.5283C44.4718 25.0905 44.426 25.1363 44.426 25.1928V25.2649C44.426 25.3637 44.2888 25.4133 44.2131 25.3498C43.988 25.1608 43.6982 25.0476 43.381 25.0476C42.472 25.0476 41.792 25.7633 41.792 26.701ZM42.6294 26.701C42.6294 26.1427 43.0303 25.6846 43.5242 25.6846C44.0467 25.6846 44.426 26.1355 44.426 26.701C44.426 27.4096 43.9178 27.7246 43.5242 27.7246C43.0303 27.7246 42.6294 27.2736 42.6294 26.701Z" fill="#CB302E"/>
<path d="M46.3903 29.4189C46.3903 29.4754 46.4361 29.5211 46.4926 29.5211H47.1184C47.1748 29.5211 47.2206 29.4754 47.2206 29.4189V28.1297C47.2206 28.0316 47.3549 27.9825 47.43 28.0457C47.6591 28.2386 47.9519 28.3544 48.2728 28.3544C49.1818 28.3544 49.8618 27.6387 49.8618 26.701C49.8618 25.7633 49.189 25.0476 48.2728 25.0476C47.9487 25.0476 47.6573 25.1658 47.4261 25.3621C47.3519 25.4252 47.2206 25.3766 47.2206 25.2792V25.1928C47.2206 25.1363 47.1748 25.0905 47.1184 25.0905H46.4926C46.4361 25.0905 46.3903 25.1363 46.3903 25.1928V29.4189ZM47.2278 26.701C47.2278 25.9924 47.736 25.6775 48.1296 25.6775C48.6235 25.6775 49.0244 26.1284 49.0244 26.701C49.0244 27.2593 48.6235 27.7174 48.1296 27.7174C47.6071 27.7174 47.2278 27.2665 47.2278 26.701Z" fill="#CB302E"/>
<path d="M50.8828 25.0905C50.8263 25.0905 50.7806 25.1363 50.7806 25.1928V28.2092C50.7806 28.2657 50.8263 28.3115 50.8828 28.3115H51.5158C51.5722 28.3115 51.618 28.2657 51.618 28.2092V25.1928C51.618 25.1363 51.5722 25.0905 51.5158 25.0905H50.8828ZM50.6374 24.067C50.6374 24.3246 50.9022 24.5465 51.1957 24.5465C51.4963 24.5465 51.7469 24.3246 51.7469 24.067C51.7469 23.8093 51.4892 23.5874 51.1957 23.5874C50.8951 23.5874 50.6374 23.8093 50.6374 24.067Z" fill="#CB302E"/>
<path d="M52.5134 26.701C52.5134 27.6387 53.1934 28.3544 54.1024 28.3544C54.4233 28.3544 54.7161 28.2386 54.9453 28.0457C55.0203 27.9825 55.1546 28.0316 55.1546 28.1297V28.2092C55.1546 28.2657 55.2004 28.3115 55.2568 28.3115H55.8898C55.9463 28.3115 55.992 28.2657 55.992 28.2092V23.9831C55.992 23.9266 55.9463 23.8809 55.8898 23.8809H55.2568C55.2004 23.8809 55.1546 23.9266 55.1546 23.9831V25.2723C55.1546 25.3704 55.0206 25.4193 54.9458 25.3558C54.7188 25.1632 54.4301 25.0476 54.1096 25.0476C53.2005 25.0476 52.5134 25.7633 52.5134 26.701ZM54.2527 25.6846C54.7752 25.6846 55.1546 26.1355 55.1546 26.701C55.1546 27.4096 54.6464 27.7246 54.2527 27.7246C53.7517 27.7246 53.3508 27.2736 53.3508 26.701C53.3508 26.1427 53.7588 25.6846 54.2527 25.6846Z" fill="#CB302E"/>
<path d="M56.868 26.701C56.868 27.6243 57.6053 28.3544 58.6145 28.3544C59.3484 28.3544 59.8868 27.9636 60.1565 27.4358C60.1889 27.3724 60.1421 27.2997 60.0709 27.2973L59.43 27.2758C59.3909 27.2745 59.355 27.296 59.3334 27.3285C59.1926 27.5404 58.9249 27.6745 58.6145 27.6745C58.1409 27.6745 57.8437 27.3746 57.7496 27.0093C57.7341 26.9493 57.7822 26.8943 57.8443 26.8943H60.2287C60.2799 26.8943 60.3235 26.8564 60.3278 26.8055C60.4095 25.8428 59.6771 25.0476 58.6145 25.0476C57.6625 25.0476 56.868 25.7848 56.868 26.701ZM57.8827 26.4075C57.8198 26.4075 57.7714 26.3509 57.7893 26.2906C57.8924 25.9434 58.1953 25.6703 58.6145 25.6703C59.0182 25.6703 59.3271 25.9013 59.4443 26.2878C59.4629 26.3491 59.4142 26.4075 59.3502 26.4075H57.8827Z" fill="#CB302E"/>
<path d="M62.4348 27.653C62.3469 27.653 62.3 27.5495 62.3579 27.4834L63.8517 25.778C63.868 25.7593 63.877 25.7354 63.877 25.7106V25.1928C63.877 25.1363 63.8313 25.0905 63.7748 25.0905H61.152C61.0955 25.0905 61.0497 25.1363 61.0497 25.1928V25.6468C61.0497 25.7032 61.0955 25.749 61.152 25.749H62.4991C62.587 25.749 62.634 25.8526 62.5761 25.9187L61.0818 27.6245C61.0657 27.6429 61.0568 27.6664 61.0565 27.6908L61.0509 28.2081C61.0503 28.265 61.0962 28.3115 61.1531 28.3115H63.7819C63.8384 28.3115 63.8842 28.2657 63.8842 28.2092V27.7552C63.8842 27.6988 63.8384 27.653 63.7819 27.653H62.4348Z" fill="#CB302E"/>
<path d="M68.549 28.3115C68.6054 28.3115 68.6512 28.2657 68.6512 28.2092V23.9831C68.6512 23.9266 68.6054 23.8809 68.549 23.8809H68.3097C68.2532 23.8809 68.2074 23.9266 68.2074 23.9831V28.2092C68.2074 28.2657 68.2532 28.3115 68.3097 28.3115H68.549Z" fill="#CB302E"/>
<path d="M73.09 26.973C73.0336 26.973 72.9873 27.019 72.9927 27.0752C73.0609 27.7832 73.8337 28.3115 74.7629 28.3115C75.6004 28.3115 76.5309 27.8319 76.538 27.0159C76.538 25.4198 73.9469 26.064 73.9469 25.1549C73.9469 24.84 74.3478 24.6467 74.7629 24.6467C75.1822 24.6467 75.4921 24.8328 75.5633 25.0614C75.5801 25.1153 75.6247 25.1621 75.6811 25.1621H76.3785C76.435 25.1621 76.4813 25.1161 76.4756 25.0599C76.4073 24.3872 75.6695 23.8809 74.7629 23.8809C73.8324 23.8809 73.045 24.4034 73.045 25.1192C73.045 26.6867 75.629 26.0282 75.629 26.973C75.629 27.3237 75.1924 27.5385 74.7629 27.5385C74.2909 27.5385 73.9738 27.3171 73.9041 27.0739C73.8886 27.0196 73.8439 26.973 73.7874 26.973H73.09Z" fill="#CB302E"/>
<path d="M77.256 26.701C77.256 27.6243 77.9933 28.3544 79.0025 28.3544C79.7364 28.3544 80.2748 27.9636 80.5445 27.4358C80.5769 27.3724 80.5301 27.2997 80.4589 27.2973L79.818 27.2758C79.7789 27.2745 79.743 27.296 79.7214 27.3285C79.5806 27.5404 79.3129 27.6745 79.0025 27.6745C78.5289 27.6745 78.2317 27.3746 78.1376 27.0093C78.1221 26.9493 78.1702 26.8943 78.2323 26.8943H80.6167C80.6679 26.8943 80.7115 26.8564 80.7158 26.8055C80.7975 25.8428 80.0651 25.0476 79.0025 25.0476C78.0505 25.0476 77.256 25.7848 77.256 26.701ZM78.2707 26.4075C78.2078 26.4075 78.1594 26.3509 78.1773 26.2906C78.2804 25.9434 78.5833 25.6703 79.0025 25.6703C79.4062 25.6703 79.7151 25.9013 79.8323 26.2878C79.8509 26.3491 79.8022 26.4075 79.7382 26.4075H78.2707Z" fill="#CB302E"/>
<path d="M81.4429 26.701C81.4429 27.5886 82.1944 28.333 83.1178 28.333C83.4052 28.333 83.6632 28.2373 83.8654 28.0802C83.9425 28.0203 84.0769 28.0707 84.0769 28.1683C84.0769 28.5334 83.8121 28.9485 83.1607 28.9485C82.8546 28.9485 82.6077 28.83 82.4795 28.6468C82.4564 28.6139 82.4192 28.5923 82.3791 28.5949L81.7013 28.639C81.6331 28.6434 81.5885 28.7123 81.6184 28.7738C81.832 29.2124 82.3412 29.7001 83.1894 29.7001C84.1127 29.7001 84.8929 29.0917 84.8929 28.1182V25.1928C84.8929 25.1363 84.8471 25.0905 84.7906 25.0905H84.1792C84.1227 25.0905 84.0769 25.1363 84.0769 25.1928V25.2337C84.0769 25.3313 83.9425 25.3817 83.8654 25.3218C83.6632 25.1647 83.4052 25.069 83.1178 25.069C82.1944 25.069 81.4429 25.8063 81.4429 26.701ZM83.175 25.6989C83.6761 25.6989 84.0769 26.1069 84.0769 26.701C84.0769 27.3237 83.6761 27.6959 83.175 27.6959C82.6597 27.6959 82.2803 27.2164 82.2803 26.701C82.2803 26.1499 82.7026 25.6989 83.175 25.6989Z" fill="#CB302E"/>
<path d="M87.3095 28.3544C87.5911 28.3544 87.8461 28.2632 88.0468 28.1196C88.1234 28.0649 88.2471 28.1153 88.2471 28.2094C88.2471 28.2658 88.2928 28.3115 88.3492 28.3115H88.9823C89.0388 28.3115 89.0846 28.2657 89.0846 28.2092V25.1928C89.0846 25.1363 89.0388 25.0905 88.9823 25.0905H88.3494C88.2929 25.0905 88.2471 25.1363 88.2471 25.1928V26.9444C88.2471 27.202 88.0038 27.6745 87.4526 27.6745C87.0518 27.6745 86.7869 27.3595 86.7869 26.9945V25.1928C86.7869 25.1363 86.7412 25.0905 86.6847 25.0905H86.0518C85.9953 25.0905 85.9495 25.1363 85.9495 25.1928V26.9444C85.9495 27.7031 86.4362 28.3544 87.3095 28.3544Z" fill="#CB302E"/>
<path d="M90.2421 28.2092C90.2421 28.2657 90.2878 28.3115 90.3443 28.3115H90.9701C91.0266 28.3115 91.0723 28.2657 91.0723 28.2092V26.701C91.0723 26.2572 91.466 25.8993 91.8668 25.8993C91.9206 25.8993 91.9744 25.905 92.0265 25.9179C92.079 25.931 92.1371 25.9121 92.1624 25.8643L92.4706 25.2808C92.4969 25.231 92.478 25.1688 92.4244 25.1513C92.3299 25.1203 92.2151 25.1048 92.0887 25.1048C91.8345 25.1048 91.5404 25.1735 91.3119 25.3365C91.2289 25.3957 91.0723 25.3395 91.0723 25.2376V25.1928C91.0723 25.1363 91.0266 25.0905 90.9701 25.0905H90.3443C90.2878 25.0905 90.2421 25.1363 90.2421 25.1928V28.2092Z" fill="#CB302E"/>
<path d="M93.4203 25.0905C93.3638 25.0905 93.318 25.1363 93.318 25.1928V28.2092C93.318 28.2657 93.3638 28.3115 93.4203 28.3115H94.0532C94.1097 28.3115 94.1555 28.2657 94.1555 28.2092V25.1928C94.1555 25.1363 94.1097 25.0905 94.0532 25.0905H93.4203ZM93.1749 24.067C93.1749 24.3246 93.4397 24.5465 93.7332 24.5465C94.0338 24.5465 94.2843 24.3246 94.2843 24.067C94.2843 23.8093 94.0266 23.5874 93.7332 23.5874C93.4325 23.5874 93.1749 23.8093 93.1749 24.067Z" fill="#CB302E"/>
<path d="M95.0509 26.701C95.0509 27.6387 95.7308 28.3544 96.6399 28.3544C96.9607 28.3544 97.2536 28.2386 97.4827 28.0457C97.5577 27.9825 97.692 28.0316 97.692 28.1297V28.2092C97.692 28.2657 97.7378 28.3115 97.7943 28.3115H98.4272C98.4837 28.3115 98.5295 28.2657 98.5295 28.2092V23.9831C98.5295 23.9266 98.4837 23.8809 98.4272 23.8809H97.7943C97.7378 23.8809 97.692 23.9266 97.692 23.9831V25.2723C97.692 25.3704 97.558 25.4193 97.4832 25.3558C97.2562 25.1632 96.9676 25.0476 96.647 25.0476C95.738 25.0476 95.0509 25.7633 95.0509 26.701ZM96.7902 25.6846C97.3127 25.6846 97.692 26.1355 97.692 26.701C97.692 27.4096 97.1839 27.7246 96.7902 27.7246C96.2891 27.7246 95.8883 27.2736 95.8883 26.701C95.8883 26.1427 96.2963 25.6846 96.7902 25.6846Z" fill="#CB302E"/>
<path d="M99.4126 26.701C99.4126 27.6387 100.085 28.3544 101.002 28.3544C101.317 28.3544 101.609 28.2386 101.837 28.0457C101.912 27.9825 102.047 28.0316 102.047 28.1297V28.2092C102.047 28.2657 102.092 28.3115 102.149 28.3115H102.782C102.838 28.3115 102.884 28.2657 102.884 28.2092V25.1928C102.884 25.1363 102.838 25.0905 102.782 25.0905H102.149C102.092 25.0905 102.047 25.1363 102.047 25.1928V25.2649C102.047 25.3637 101.909 25.4133 101.834 25.3498C101.609 25.1608 101.319 25.0476 101.002 25.0476C100.093 25.0476 99.4126 25.7633 99.4126 26.701ZM100.25 26.701C100.25 26.1427 100.651 25.6846 101.145 25.6846C101.667 25.6846 102.047 26.1355 102.047 26.701C102.047 27.4096 101.538 27.7246 101.145 27.7246C100.651 27.7246 100.25 27.2736 100.25 26.701Z" fill="#CB302E"/>
<path d="M103.732 26.701C103.732 27.6387 104.412 28.3544 105.321 28.3544C105.642 28.3544 105.935 28.2386 106.164 28.0457C106.239 27.9825 106.373 28.0316 106.373 28.1297V28.2092C106.373 28.2657 106.419 28.3115 106.475 28.3115H107.108C107.165 28.3115 107.21 28.2657 107.21 28.2092V23.9831C107.21 23.9266 107.165 23.8809 107.108 23.8809H106.475C106.419 23.8809 106.373 23.9266 106.373 23.9831V25.2723C106.373 25.3704 106.239 25.4193 106.164 25.3558C105.937 25.1632 105.649 25.0476 105.328 25.0476C104.419 25.0476 103.732 25.7633 103.732 26.701ZM105.471 25.6846C105.994 25.6846 106.373 26.1355 106.373 26.701C106.373 27.4096 105.865 27.7246 105.471 27.7246C104.97 27.7246 104.569 27.2736 104.569 26.701C104.569 26.1427 104.977 25.6846 105.471 25.6846Z" fill="#CB302E"/>
<path d="M112.065 28.3115C112.121 28.3115 112.167 28.2657 112.167 28.2092V23.9831C112.167 23.9266 112.121 23.8809 112.065 23.8809H111.826C111.769 23.8809 111.723 23.9266 111.723 23.9831V28.2092C111.723 28.2657 111.769 28.3115 111.826 28.3115H112.065Z" fill="#CB302E"/>
<path d="M118.801 28.3115C119.479 28.3115 120.222 27.9779 120.661 27.367C120.694 27.3205 120.68 27.2561 120.631 27.226L120.076 26.8832C120.028 26.8537 119.966 26.8686 119.933 26.9143C119.597 27.3849 119.113 27.5385 118.801 27.5385C117.993 27.5385 117.413 26.8442 117.413 26.0926C117.413 25.341 117.993 24.6467 118.794 24.6467C119.093 24.6467 119.584 24.7882 119.933 25.2781C119.966 25.3238 120.028 25.3387 120.076 25.3092L120.629 24.9673C120.679 24.9369 120.693 24.8713 120.659 24.8247C120.177 24.1702 119.453 23.8809 118.794 23.8809C117.606 23.8809 116.504 24.7899 116.504 26.0998C116.504 27.4025 117.613 28.3115 118.801 28.3115Z" fill="#CB302E"/>
<path d="M121.296 26.701C121.296 27.6172 122.084 28.3544 123.057 28.3544C124.023 28.3544 124.811 27.61 124.811 26.701C124.811 25.792 124.023 25.0476 123.057 25.0476C122.084 25.0476 121.296 25.792 121.296 26.701ZM123.057 25.7276C123.537 25.7276 123.98 26.1427 123.98 26.701C123.98 27.2378 123.565 27.6745 123.057 27.6745C122.549 27.6745 122.134 27.2378 122.134 26.701C122.134 26.1642 122.542 25.7276 123.057 25.7276Z" fill="#CB302E"/>
<path d="M126.427 28.3115C126.484 28.3115 126.53 28.2657 126.53 28.2092V26.4576C126.53 26.2214 126.766 25.7276 127.331 25.7276C127.711 25.7276 127.99 26.021 127.99 26.4075V28.2092C127.99 28.2657 128.036 28.3115 128.092 28.3115H128.725C128.782 28.3115 128.827 28.2657 128.827 28.2092V26.4576C128.827 25.6989 128.341 25.0476 127.475 25.0476C127.188 25.0476 126.931 25.1388 126.73 25.2825C126.653 25.3372 126.53 25.2867 126.53 25.1926C126.53 25.1362 126.484 25.0905 126.428 25.0905H125.795C125.738 25.0905 125.692 25.1363 125.692 25.1928V28.2092C125.692 28.2657 125.738 28.3115 125.795 28.3115H126.427Z" fill="#CB302E"/>
<path d="M129.751 25.0476C129.695 25.0476 129.649 25.0934 129.649 25.1498V25.568C129.649 25.6245 129.695 25.6703 129.751 25.6703H129.955C130.011 25.6703 130.057 25.7161 130.057 25.7725V28.2092C130.057 28.2657 130.103 28.3115 130.159 28.3115H130.792C130.849 28.3115 130.894 28.2657 130.894 28.2092V25.7725C130.894 25.7161 130.94 25.6703 130.997 25.6703H132.417C132.473 25.6703 132.519 25.7161 132.519 25.7725V28.2092C132.519 28.2657 132.565 28.3115 132.621 28.3115H133.254C133.311 28.3115 133.357 28.2657 133.357 28.2092V25.1498C133.357 25.0934 133.311 25.0476 133.254 25.0476H130.997C130.94 25.0476 130.894 25.0018 130.894 24.9453V24.8973C130.894 24.6682 131.066 24.3533 131.481 24.3533C131.51 24.3533 131.537 24.3561 131.563 24.3604C131.618 24.3695 131.672 24.3394 131.687 24.286L131.842 23.7312C131.856 23.6787 131.827 23.6248 131.773 23.6149C131.694 23.6001 131.586 23.5874 131.481 23.5874C130.708 23.5874 130.057 24.1385 130.057 24.8973V24.9453C130.057 25.0018 130.011 25.0476 129.955 25.0476H129.751ZM132.383 24.067C132.383 24.3246 132.641 24.5465 132.934 24.5465C133.235 24.5465 133.493 24.3246 133.493 24.067C133.493 23.8093 133.235 23.5874 132.934 23.5874C132.641 23.5874 132.383 23.8093 132.383 24.067Z" fill="#CB302E"/>
<path d="M134.269 26.701C134.269 27.6387 134.942 28.3544 135.858 28.3544C136.173 28.3544 136.465 28.2386 136.694 28.0457C136.769 27.9825 136.903 28.0316 136.903 28.1297V28.2092C136.903 28.2657 136.949 28.3115 137.005 28.3115H137.638C137.695 28.3115 137.74 28.2657 137.74 28.2092V25.1928C137.74 25.1363 137.695 25.0905 137.638 25.0905H137.005C136.949 25.0905 136.903 25.1363 136.903 25.1928V25.2649C136.903 25.3637 136.766 25.4133 136.69 25.3498C136.465 25.1608 136.175 25.0476 135.858 25.0476C134.949 25.0476 134.269 25.7633 134.269 26.701ZM135.106 26.701C135.106 26.1427 135.507 25.6846 136.001 25.6846C136.524 25.6846 136.903 26.1355 136.903 26.701C136.903 27.4096 136.395 27.7246 136.001 27.7246C135.507 27.7246 135.106 27.2736 135.106 26.701Z" fill="#CB302E"/>
<path d="M139.61 28.3115C139.666 28.3115 139.712 28.2657 139.712 28.2092V26.4576C139.712 26.2214 139.948 25.7276 140.514 25.7276C140.893 25.7276 141.172 26.021 141.172 26.4075V28.2092C141.172 28.2657 141.218 28.3115 141.274 28.3115H141.907C141.964 28.3115 142.01 28.2657 142.01 28.2092V26.4576C142.01 25.6989 141.523 25.0476 140.657 25.0476C140.37 25.0476 140.113 25.1388 139.912 25.2825C139.836 25.3372 139.712 25.2867 139.712 25.1926C139.712 25.1362 139.666 25.0905 139.61 25.0905H138.977C138.92 25.0905 138.874 25.1363 138.874 25.1928V28.2092C138.874 28.2657 138.92 28.3115 138.977 28.3115H139.61Z" fill="#CB302E"/>
<path d="M144.365 27.653C144.277 27.653 144.23 27.5495 144.288 27.4834L145.782 25.778C145.798 25.7593 145.807 25.7354 145.807 25.7106V25.1928C145.807 25.1363 145.761 25.0905 145.705 25.0905H143.082C143.026 25.0905 142.98 25.1363 142.98 25.1928V25.6468C142.98 25.7032 143.026 25.749 143.082 25.749H144.429C144.517 25.749 144.564 25.8526 144.506 25.9187L143.012 27.6245C142.996 27.6429 142.987 27.6664 142.986 27.6908L142.981 28.2081C142.98 28.265 143.026 28.3115 143.083 28.3115H145.712C145.768 28.3115 145.814 28.2657 145.814 28.2092V27.7552C145.814 27.6988 145.768 27.653 145.712 27.653H144.365Z" fill="#CB302E"/>
<path d="M146.529 26.701C146.529 27.6387 147.201 28.3544 148.118 28.3544C148.433 28.3544 148.725 28.2386 148.953 28.0457C149.028 27.9825 149.163 28.0316 149.163 28.1297V28.2092C149.163 28.2657 149.208 28.3115 149.265 28.3115H149.898C149.954 28.3115 150 28.2657 150 28.2092V25.1928C150 25.1363 149.954 25.0905 149.898 25.0905H149.265C149.208 25.0905 149.163 25.1363 149.163 25.1928V25.2649C149.163 25.3637 149.025 25.4133 148.95 25.3498C148.725 25.1608 148.435 25.0476 148.118 25.0476C147.208 25.0476 146.529 25.7633 146.529 26.701ZM147.366 26.701C147.366 26.1427 147.767 25.6846 148.261 25.6846C148.783 25.6846 149.163 26.1355 149.163 26.701C149.163 27.4096 148.654 27.7246 148.261 27.7246C147.767 27.7246 147.366 27.2736 147.366 26.701Z" fill="#CB302E"/>
<path d="M53.9141 11.5578C53.9141 15.3345 57.4289 17.7324 60.9438 17.7324C62.8121 17.7324 65.1709 16.9631 66.5762 15.2427C66.6486 15.1541 66.6235 15.023 66.5259 14.9633L63.7854 13.2882C63.7002 13.2361 63.5896 13.258 63.526 13.335C62.5345 14.5352 61.2536 14.5352 60.9438 14.5352C58.9955 14.5352 57.7302 12.9965 57.7302 11.5578C57.7302 10.1191 58.9754 8.56044 60.9237 8.56044C61.253 8.56044 62.5168 8.57903 63.5252 9.76402C63.5893 9.83941 63.699 9.85982 63.7832 9.8078L66.522 8.11591C66.6209 8.05479 66.6442 7.92066 66.5687 7.83221C65.0077 6.00345 62.7954 5.36324 60.9237 5.36324C57.4088 5.36324 53.9141 7.78112 53.9141 11.5578Z" fill="#122566"/>
<path d="M72.3535 17.7324C72.4365 17.7324 72.5103 17.6795 72.537 17.6009L72.9901 16.2653C73.0167 16.1867 73.0905 16.1338 73.1735 16.1338H77.3747C77.4577 16.1338 77.5315 16.1867 77.5582 16.2653L78.0113 17.6009C78.0379 17.6795 78.1117 17.7324 78.1947 17.7324H81.8514C81.9873 17.7324 82.0809 17.5962 82.0323 17.4693L77.4408 5.48764C77.412 5.41271 77.3401 5.36324 77.2599 5.36324H73.2683C73.1881 5.36324 73.1161 5.41271 73.0874 5.48764L68.4959 17.4693C68.4473 17.5962 68.5409 17.7324 68.6768 17.7324H72.3535ZM75.0818 10.0067C75.1405 9.83053 75.3895 9.82992 75.4491 10.0058L76.4227 12.8806C76.4652 13.0062 76.3718 13.1364 76.2392 13.1364H74.3077C74.1754 13.1364 74.0821 13.0069 74.1239 12.8815L75.0818 10.0067Z" fill="#122566"/>
<path d="M88.2579 17.7324C88.3649 17.7324 88.4517 17.6457 88.4517 17.5387V13.53C88.4517 13.423 88.5384 13.3362 88.6454 13.3362H88.8858C88.953 13.3362 89.0154 13.3711 89.0507 13.4283L91.6487 17.6404C91.6839 17.6976 91.7463 17.7324 91.8135 17.7324H95.7352C95.8872 17.7324 95.98 17.5654 95.8997 17.4363L93.3483 13.3359C93.2801 13.2262 93.3365 13.0817 93.4592 13.0412C94.9799 12.5388 96.0839 11.4124 96.0839 9.43967C96.0839 6.70207 94.1959 5.36324 91.364 5.36324H84.8293C84.7223 5.36324 84.6355 5.44998 84.6355 5.55696V17.5387C84.6355 17.6457 84.7223 17.7324 84.8293 17.7324H88.2579ZM88.4517 8.75416C88.4517 8.64717 88.5384 8.56044 88.6454 8.56044H91.364C91.9464 8.56044 92.2678 9.02003 92.2678 9.43967C92.2678 9.91924 91.8661 10.3389 91.364 10.3389H88.6454C88.5384 10.3389 88.4517 10.2521 88.4517 10.1452V8.75416Z" fill="#122566"/>
<path d="M99.3225 5.36324C99.2155 5.36324 99.1288 5.44998 99.1288 5.55696V17.5387C99.1288 17.6457 99.2155 17.7324 99.3225 17.7324H102.751C102.858 17.7324 102.945 17.6457 102.945 17.5387V13.2502C102.945 13.1432 103.032 13.0565 103.139 13.0565H108.977C109.084 13.0565 109.171 12.9698 109.171 12.8628V10.2528C109.171 10.1459 109.084 10.0591 108.977 10.0591H103.139C103.032 10.0591 102.945 9.97239 102.945 9.8654V8.75416C102.945 8.64717 103.032 8.56044 103.139 8.56044H109.781C109.888 8.56044 109.975 8.47371 109.975 8.36672V5.55696C109.975 5.44998 109.888 5.36324 109.781 5.36324H99.3225Z" fill="#122566"/>
<path d="M116.656 17.7324C116.763 17.7324 116.85 17.6457 116.85 17.5387V5.53698C116.85 5.42999 116.763 5.34326 116.656 5.34326H113.227C113.12 5.34326 113.034 5.42999 113.034 5.53698V17.5387C113.034 17.6457 113.12 17.7324 113.227 17.7324H116.656Z" fill="#122566"/>
<path d="M124.18 11.7088C124.225 11.7745 124.225 11.8607 124.18 11.9264L120.443 17.4298C120.355 17.5584 120.448 17.7324 120.603 17.7324H124.614C124.678 17.7324 124.738 17.7007 124.774 17.6476L126.324 15.3701C126.4 15.2571 126.567 15.2571 126.644 15.3701L128.194 17.6476C128.23 17.7007 128.29 17.7324 128.354 17.7324H132.365C132.521 17.7324 132.613 17.5589 132.526 17.4302L128.806 11.926C128.762 11.8605 128.762 11.7747 128.806 11.7091L132.888 5.66538C132.974 5.53672 132.882 5.36324 132.727 5.36324H128.715C128.651 5.36324 128.591 5.39506 128.555 5.44818L126.644 8.26428C126.567 8.37754 126.4 8.37754 126.323 8.26428L124.412 5.44819C124.376 5.39506 124.316 5.36324 124.252 5.36324H120.241C120.086 5.36324 119.994 5.53709 120.081 5.66572L124.18 11.7088Z" fill="#122566"/>
</svg>
